<?xml version="1.0" encoding="utf-8"?>
<!-- Generator: Adobe Illustrator 23.0.0, SVG Export Plug-In . SVG Version: 6.00 Build 0)  -->
<svg version="1.1" id="レイヤー_1" xmlns="http://www.w3.org/2000/svg" xmlns:xlink="http://www.w3.org/1999/xlink" x="0px"
	 y="0px" viewBox="0 0 194 194" style="enable-background:new 0 0 194 194;" xml:space="preserve">
<style type="text/css">
	.st0{fill:#6E0000;}
	.st1{fill:#FFFFFF;}
	.st2{font-family:'NotoSansJP-Medium-83pv-RKSJ-H';}
	.st3{font-size:23px;}
	.st4{letter-spacing:1;}
</style>
<g>
	<g id="グループ化_45" transform="translate(117)">
		<circle id="楕円形_26" class="st0" cx="-20" cy="97" r="97"/>
		<text transform="matrix(1 0 0 1 -49.43 138.392)" class="st1 st2 st3 st4">QUIT</text>
	</g>
	<g>
		<path class="st1" d="M99.18,62.44H70.39c-0.36,0-0.69,0.2-0.87,0.52L59.12,82.27c-0.16,0.3-0.16,0.67,0.02,0.97
			c0.18,0.3,0.5,0.48,0.84,0.48h17.92L99.18,62.44z"/>
		<path class="st1" d="M132.88,82.27l-10.41-19.31c-0.17-0.32-0.5-0.52-0.87-0.52h-6.02l7.8-7.8c1.14-1.14,1.14-2.99,0-4.12
			s-2.99-1.14-4.12,0l-45,45c-1.14,1.14-1.14,2.99,0,4.12c0.57,0.57,1.32,0.85,2.06,0.85s1.49-0.29,2.06-0.85l15.93-15.93h37.69
			c0.35,0,0.67-0.18,0.84-0.48C133.04,82.94,133.05,82.57,132.88,82.27z"/>
	</g>
</g>
</svg>
