<?xml version="1.0" encoding="utf-8"?>
<!-- Generator: Adobe Illustrator 23.0.0, SVG Export Plug-In . SVG Version: 6.00 Build 0)  -->
<svg version="1.1" id="レイヤー_1" xmlns="http://www.w3.org/2000/svg" xmlns:xlink="http://www.w3.org/1999/xlink" x="0px"
	 y="0px" viewBox="0 0 194 194" style="enable-background:new 0 0 194 194;" xml:space="preserve">
<style type="text/css">
	.st0{opacity:0.3;}
	.st1{fill:#FFFFFF;}
	.st2{fill:none;stroke:#FFFFFF;stroke-width:7;stroke-linecap:round;stroke-miterlimit:10;}
	.st3{fill:none;stroke:#FFFFFF;stroke-width:7;stroke-linecap:round;stroke-linejoin:round;stroke-miterlimit:10;}
	.st4{enable-background:new    ;}
</style>
<g id="楕円形_26_1_" class="st0">
	<path d="M97,2c52.4,0,95,42.6,95,95s-42.6,95-95,95S2,149.4,2,97S44.6,2,97,2"/>
</g>
<g id="楕円形_26">
	<path class="st1" d="M97,2c52.4,0,95,42.6,95,95s-42.6,95-95,95S2,149.4,2,97S44.6,2,97,2 M97,0C43.4,0,0,43.4,0,97s43.4,97,97,97
		s97-43.4,97-97S150.6,0,97,0L97,0z"/>
</g>
<g id="back_icon01" transform="translate(1894.968 1041.873)">
	<path id="パス_119" class="st2" d="M-1788.7-983h3.4c6.9,0.1,12.4,5.7,12.3,12.6c0,6.8-5.5,12.4-12.4,12.4h-37.6"/>
	<line id="線_1" class="st3" x1="-1813" y1="-968" x2="-1823" y2="-958"/>
</g>
<g class="st4">
	<path class="st1" d="M58.4,127.2c-0.7,2.2-1.8,4-3.2,5.4c1.2,0.9,2.7,1.6,4.4,2c-0.4,0.4-1,1.2-1.3,1.7c-1.7-0.5-3.3-1.3-4.6-2.4
		c-1.3,1-2.7,1.7-4.3,2.3c-0.2-0.5-0.7-1.1-1.1-1.6v1.6h-2v-2c-2.7,0.3-5.4,0.6-7.5,0.8l-0.2-1.9c0.6,0,1.3-0.1,2.1-0.2v-7.4h-1.9
		v-1.7h20.1v1.7H48.4v8.9c1.4-0.4,2.7-1.1,3.9-1.9c-0.9-1.1-1.7-2.3-2.3-3.7l1.2-0.3h-2.1v-1.7h7.6l0.4-0.1L58.4,127.2z M56.5,122.7
		H41.6v-6.9h14.9V122.7z M42.8,125.5v1.3h3.6v-1.3H42.8z M42.8,129.7h3.6v-1.4h-3.6V129.7z M46.4,132.4v-1.1h-3.6v1.5L46.4,132.4z
		 M54.4,117.3H43.7v1.3h10.7V117.3z M54.4,119.9H43.7v1.3h10.7V119.9z M51.8,128.4c0.5,1.1,1.1,2,1.9,2.9c0.9-0.9,1.6-1.8,2.1-2.9
		H51.8z"/>
	<path class="st1" d="M71.3,133c-0.5-0.6-1.4-1.5-2.2-2.3v5.5H67v-5.4c-1,1.5-2.3,2.9-3.4,3.9c-0.3-0.5-0.9-1.2-1.4-1.5
		c1.6-1,3.3-2.9,4.4-4.8h-3.8v-1.8H67v-2.1h-4.3v-1.8H65c-0.1-0.8-0.4-2-0.8-3l1.6-0.4H63v-1.8h4v-2.2h2.1v2.2h4v1.8h-2.8l1.6,0.4
		c-0.4,1.1-0.9,2.2-1.3,3h2.7v1.8H69v2.1h4.1v1.8H69v0.4c0.8,0.6,2.9,2.3,3.5,2.7L71.3,133z M65.9,119.2c0.5,1,0.8,2.2,0.9,3
		l-1.3,0.3h5.1l-1.6-0.3c0.4-0.9,0.8-2.1,1-3H65.9z M83.6,124.7h-2.4v11.4h-2.1v-11.4h-3v0.2c0,3.4-0.4,8.2-3.6,11.4
		c-0.3-0.5-1-1.2-1.5-1.5c2.8-2.8,3.1-6.8,3.1-9.9v-8l1.4,0.4c2.3-0.5,4.7-1.2,6.1-2l1.7,1.5c-2,0.9-4.7,1.6-7.2,2.1v3.7h7.5V124.7z
		"/>
	<path class="st1" d="M88.5,126.2c1.1-1.2,3-3.7,4.3-5.3c1.4-1.7,2.8-1.9,4.3-0.3c1.4,1.4,3.2,3.7,4.6,5.3c1.4,1.5,3.5,3.8,5.6,5.7
		l-1.8,2.1c-1.7-1.6-3.7-3.8-5.2-5.6c-1.4-1.7-3.2-3.9-4.2-5c-0.9-1-1.3-0.9-2,0.1c-1,1.3-2.8,3.7-3.8,5c-0.5,0.6-1,1.4-1.4,1.9
		l-2.2-2.2C87.3,127.3,87.8,126.8,88.5,126.2z"/>
	<path class="st1" d="M123.7,129.5c1.3,2.7,3.8,4.2,8,4.8c-0.5,0.5-1,1.3-1.3,1.9c-4.1-0.7-6.6-2.3-8.1-5.3c-1,2.6-3.1,4.3-7.5,5.3
		c-0.2-0.5-0.8-1.4-1.1-1.7c4.3-0.9,6.1-2.5,6.9-5h-5.8c-0.4,2.3-1.2,4.6-2.6,6.4c-0.4-0.4-1.3-1-1.9-1.2c2.5-3.1,2.7-7.5,2.7-10.5
		v-4.5h16.6v5.6h-6.3c-0.1,0.9-0.1,1.7-0.2,2.4h7.7v1.8H123.7z M130.7,118.3h-19.3v-1.9h19.3V118.3z M120.9,127.7
		c0.1-0.7,0.2-1.5,0.2-2.4h-6c0,0.8-0.1,1.6-0.1,2.4H120.9z M115.1,121.3v2.3h12.4v-2.3H115.1z"/>
	<path class="st1" d="M150.9,118.5c-0.5,0.3-1,0.6-1.4,0.9c-1.2,0.8-3.9,3.2-5.5,4.6c0.9-0.3,1.8-0.4,2.7-0.4c3.8,0,6.6,2.3,6.6,5.5
		c0,3.7-2.9,6.3-8,6.3c-3.2,0-5.3-1.4-5.3-3.5c0-1.7,1.5-3.2,3.8-3.2c2.8,0,4.5,1.8,4.8,4c1.5-0.7,2.4-1.9,2.4-3.6
		c0-2.1-2.2-3.7-4.9-3.7c-3.6,0-5.8,1.7-8.5,4.6l-1.7-1.7c1.8-1.4,4.6-3.8,6-4.9c1.3-1.1,3.9-3.2,5-4.2c-1.2,0-5.1,0.2-6.3,0.3
		c-0.6,0-1.2,0.1-1.7,0.2l-0.1-2.4c0.6,0.1,1.3,0.1,1.8,0.1c1.2,0,6.3-0.1,7.6-0.3c0.8-0.1,1.2-0.1,1.4-0.2L150.9,118.5z
		 M146.5,133.3c-0.2-1.7-1.2-2.8-2.7-2.8c-0.9,0-1.6,0.6-1.6,1.3c0,1,1.2,1.6,2.7,1.6C145.5,133.4,146,133.3,146.5,133.3z"/>
</g>
</svg>
