<?xml version="1.0" encoding="utf-8"?>
<!-- Generator: Adobe Illustrator 23.0.0, SVG Export Plug-In . SVG Version: 6.00 Build 0)  -->
<svg version="1.1" id="レイヤー_1" xmlns="http://www.w3.org/2000/svg" xmlns:xlink="http://www.w3.org/1999/xlink" x="0px"
	 y="0px" viewBox="0 0 280 86" style="enable-background:new 0 0 280 86;" xml:space="preserve">
<style type="text/css">
	.st0{fill:#6E0000;}
	.st1{fill:#FFFFFF;stroke:#FFFFFF;stroke-width:0.4667;stroke-linecap:round;stroke-linejoin:round;stroke-miterlimit:10;}
	.st2{fill:#FFFFFF;}
</style>
<path id="長方形_57" class="st0" d="M43,0h194c23.7,0,43,19.3,43,43l0,0c0,23.7-19.3,43-43,43H43C19.3,86,0,66.7,0,43l0,0
	C0,19.3,19.3,0,43,0z"/>
<g>
	<polygon class="st1" points="75.7,41.6 72.8,34.2 59.3,34.2 56.4,41.6 45,41.6 66,54.6 87,41.6 	"/>
</g>
<g>
	<path class="st2" d="M114.6,49.9c1.3,2.1,3.8,3,7.1,3.1c3.3,0.1,10,0,13.7-0.2c-0.3,0.7-0.8,2-0.9,2.8c-3.4,0.2-9.4,0.2-12.8,0.1
		c-3.8-0.2-6.4-1.1-8.3-3.5c-1.4,1.2-2.9,2.4-4.4,3.7l-1.4-2.9c1.4-0.8,2.9-1.9,4.4-3.1v-7H108v-2.6h6.6V49.9z M113.4,36
		c-0.9-1.4-3.1-3.4-5-4.7l2.1-1.7c1.9,1.3,4.1,3.1,5.1,4.6L113.4,36z M116.4,48.9c0.6-0.1,1.3-0.2,2-0.4V29.9h13.9v11.2l0.1-0.1
		l2.2,1.7c-1.6,1.2-3.5,2.4-5.1,3.3c1.4,1.6,3.3,2.8,5.5,3.5c-0.6,0.6-1.4,1.6-1.8,2.4c-4.6-1.7-7.5-5.4-9.1-10.4h-3.1v6.6
		c1.7-0.4,3.5-0.8,5.4-1.2l0.2,2.4c-3.4,0.9-7,1.7-9.8,2.4L116.4,48.9z M121.1,32.3v2.2h8.5v-2.2H121.1z M129.6,38.9v-2.3h-8.5v2.3
		H129.6z M126.8,41.3c0.4,1,0.9,2,1.5,2.9c1.3-0.9,2.8-2,3.9-2.9H126.8z"/>
	<path class="st2" d="M166.5,31.6v2.5h-22.2v6c0,4.7-0.4,11.7-3,16.2c-0.5-0.5-1.7-1.3-2.3-1.6c2.4-4.2,2.6-10.3,2.6-14.7v-8.5h10.8
		v-2.9h2.9v2.9H166.5z M161.5,37.1h4.7v2.3h-4.7v4.8h-4.7v2.1h7.9v6.1c0,1.3-0.2,1.9-1.2,2.4c-0.9,0.4-2.3,0.4-4.4,0.4
		c-0.1-0.8-0.4-1.7-0.8-2.4c1.3,0.1,2.6,0.1,3.1,0c0.4,0,0.5-0.1,0.5-0.5v-3.7h-5.2v7.6h-2.7v-7.6h-4.9v6.6h-2.7v-9h7.6v-2.1h-4.7
		v-4.8h-4.2v-2.3h4.2v-2.5h2.6v2.5h6.9v-2.5h2.7V37.1z M158.8,39.4H152V42h6.9V39.4z"/>
	<path class="st2" d="M197.3,36.5c-1.8-0.1-4.6-0.1-8.9-0.1c0,1.6,0,3.3,0,4.6c0.7,1.1,1,2.4,1,4c0,4-2.1,8.6-9.1,10.6l-2.5-2.5
		c3.5-0.8,6.2-2.1,7.6-4.3c-0.6,0.3-1.3,0.4-2.1,0.4c-2.4,0-5-1.8-5-5.2c0-3.1,2.5-5.3,5.5-5.3c0.6,0,1.1,0.1,1.7,0.2l0-2.5
		c-4.5,0.1-9.4,0.2-13,0.5l-0.1-2.9c3.4,0,8.9-0.2,13.1-0.3c0-0.6,0-1.2-0.1-1.5c-0.1-0.8-0.2-1.7-0.2-2.2h3.4
		c-0.1,0.4-0.2,1.7-0.2,2.2c0,0.4,0,0.9,0,1.5h8.9L197.3,36.5z M183.9,46.6c1.5,0,2.7-1.2,2.3-4c-0.5-1-1.3-1.4-2.3-1.4
		c-1.4,0-2.7,1-2.7,2.8C181.2,45.6,182.4,46.6,183.9,46.6z"/>
	<path class="st2" d="M223.8,33.2c-0.6,0.4-1.3,0.8-1.8,1.2c-1.5,1.1-5.1,4.2-7.2,6c1.2-0.4,2.3-0.5,3.5-0.5c5,0,8.7,3.1,8.7,7.2
		c0,4.8-3.8,8.2-10.5,8.2c-4.1,0-6.9-1.9-6.9-4.5c0-2.2,2-4.2,4.9-4.2c3.7,0,5.8,2.4,6.2,5.2c2-0.9,3.1-2.5,3.1-4.6
		c0-2.8-2.8-4.8-6.4-4.8c-4.7,0-7.6,2.2-11.1,5.9l-2.2-2.2c2.3-1.9,6-5,7.8-6.4c1.7-1.4,5.1-4.2,6.6-5.5c-1.6,0.1-6.6,0.3-8.2,0.4
		c-0.8,0.1-1.5,0.1-2.2,0.2l-0.1-3.1c0.8,0.1,1.6,0.1,2.4,0.1c1.6,0,8.3-0.2,9.9-0.3c1-0.1,1.6-0.2,1.9-0.3L223.8,33.2z M218,52.4
		c-0.2-2.2-1.5-3.6-3.5-3.6c-1.2,0-2.1,0.7-2.1,1.6c0,1.3,1.5,2.1,3.5,2.1C216.6,52.5,217.3,52.5,218,52.4z"/>
</g>
</svg>
