<?xml version="1.0" encoding="utf-8"?>
<!-- Generator: Adobe Illustrator 23.0.0, SVG Export Plug-In . SVG Version: 6.00 Build 0)  -->
<svg version="1.1" id="レイヤー_1" xmlns="http://www.w3.org/2000/svg" xmlns:xlink="http://www.w3.org/1999/xlink" x="0px"
	 y="0px" viewBox="0 0 280 86" style="enable-background:new 0 0 280 86;" xml:space="preserve">
<style type="text/css">
	.st0{fill:#6E0000;}
	.st1{enable-background:new    ;}
	.st2{fill:#FFFFFF;}
	.st3{fill:none;stroke:#FCFDFF;stroke-width:2.0814;stroke-miterlimit:10;}
</style>
<path id="長方形_57" class="st0" d="M43,0h194c23.7,0,43,19.3,43,43l0,0c0,23.7-19.3,43-43,43H43C19.3,86,0,66.7,0,43l0,0
	C0,19.3,19.3,0,43,0z"/>
<g class="st1">
	<path class="st2" d="M131.2,35c-0.4,5.4-1.2,9.7-2.6,13c1.4,1.1,2.5,2.2,3.3,3.2l-1.7,2.2c-0.7-0.9-1.7-1.9-2.9-2.9
		c-1.5,2.5-3.3,4.4-5.6,5.8c-0.4-0.7-1.1-1.7-1.7-2.2c2.1-1.1,3.8-2.9,5.2-5.3c-0.8-0.7-1.7-1.3-2.5-1.8l-0.3,1.2L120,47
		c0.7-2.5,1.6-6,2.4-9.6h-2.5v-2.6h3.1c0.5-2.1,0.9-4.2,1.2-6.1l2.7,0.3c-0.4,1.8-0.8,3.8-1.2,5.8h3.4l0.5-0.1L131.2,35z M125,37.4
		c-0.6,2.5-1.2,4.9-1.7,7.1c1,0.6,2,1.3,3,2c1-2.5,1.7-5.5,2-9.1H125z M131.2,38.8l2.4-0.1c1.2-2.9,2.5-7,3.1-10l3.1,0.6
		c-1,3-2.2,6.5-3.4,9.2l6.8-0.4c-0.7-1.3-1.6-2.5-2.4-3.7l2.2-1.1c1.9,2.5,4,5.8,4.7,8l-2.4,1.3c-0.2-0.6-0.5-1.3-0.8-2.1
		c-4.7,0.4-9.5,0.7-13,0.9L131.2,38.8z M133.2,44.1H146v12.1h-2.8V55h-7.5v1.3h-2.6V44.1z M135.8,46.6v5.9h7.5v-5.9H135.8z"/>
	<path class="st2" d="M168.9,30.7c-0.2,0.8-0.5,2-0.6,2.6c-0.1,0.5-0.2,1-0.4,1.6c4.7,0.9,7.9,4.6,7.9,9.8c0,6.1-4.3,9.7-10.6,10.6
		l-1.8-2.7c6.3-0.6,9.4-3.8,9.4-8c0-3.6-2.1-6.3-5.6-7c-1.1,3.6-2.5,7.3-4.2,9.8c0.5,0.7,1.1,1.4,1.7,2l-2.4,1.9
		c-0.4-0.5-0.8-1-1.2-1.5c-1.9,2.2-3.7,3.4-5.8,3.4c-2.4,0-4.4-1.9-4.4-5.6c0-3.4,1.8-7,4.5-9.3c-0.3-0.9-0.6-1.7-0.9-2.6
		c-0.3-1-0.6-2-1.1-2.9l3.1-1c0.2,0.9,0.4,1.9,0.6,2.7c0.2,0.6,0.4,1.4,0.6,2.1c2.4-1.3,4.8-1.9,7.2-2c0.1-0.6,0.3-1.2,0.4-1.8
		c0.1-0.7,0.2-1.8,0.2-2.5L168.9,30.7z M159.1,46.8c-0.9-1.4-1.9-3.5-2.7-5.8c-1.7,1.8-2.7,4.2-2.7,6.3c0,1.7,0.7,2.8,1.9,2.8
		c1.3,0,2.6-1.2,3.9-2.8L159.1,46.8z M161.3,44.7c1.2-2.1,2.3-4.8,3.1-7.4c-2.1,0.1-4,0.8-5.7,1.9c0.7,2,1.6,3.9,2.3,5.1L161.3,44.7
		z"/>
	<path class="st2" d="M201.3,33.2c-0.6,0.4-1.3,0.8-1.8,1.2c-1.5,1.1-5.1,4.2-7.2,6c1.2-0.4,2.3-0.5,3.5-0.5c5,0,8.7,3.1,8.7,7.2
		c0,4.8-3.8,8.2-10.5,8.2c-4.1,0-6.9-1.9-6.9-4.5c0-2.2,2-4.2,4.9-4.2c3.7,0,5.8,2.4,6.2,5.2c2-0.9,3.1-2.5,3.1-4.7
		c0-2.8-2.8-4.8-6.4-4.8c-4.7,0-7.6,2.2-11.1,5.9l-2.2-2.2c2.3-1.9,6-5,7.8-6.5c1.7-1.4,5.1-4.2,6.6-5.5c-1.6,0.1-6.6,0.3-8.2,0.4
		c-0.8,0.1-1.5,0.1-2.2,0.2l-0.1-3.1c0.8,0.1,1.6,0.1,2.4,0.1c1.6,0,8.3-0.2,9.9-0.3c1-0.1,1.6-0.2,1.9-0.3L201.3,33.2z M195.5,52.4
		c-0.2-2.2-1.5-3.6-3.5-3.6c-1.2,0-2.1,0.7-2.1,1.6c0,1.3,1.5,2.1,3.5,2.1C194.1,52.6,194.8,52.5,195.5,52.4z"/>
</g>
<g>
	<g>
		<path class="st3" d="M71.5,33.5c2.7-3.4,8.7-5.5,15.6-5.2c9.3,0.4,16.6,5.3,16.3,10.9c-0.2,4.7-5.8,8.4-13.2,9.2
			c-0.4,2-0.4,3.8,1.1,5.8c-4.1-0.9-6.3-3.4-7.5-5.9c-1.4-0.1-2.8-0.4-4.1-0.8"/>
		<path class="st3" d="M68.2,48.8c0.2,1.6,0.1,3-1.2,4.4c3.2-0.4,5-2.4,6.1-4.2c6.4-0.4,11.4-3.6,11.5-7.6c0.1-4.3-5.7-7.9-12.9-8
			c-7.2-0.1-13.1,3.3-13.2,7.7C58.4,44.8,62.5,47.9,68.2,48.8z"/>
	</g>
</g>
</svg>
