<?xml version="1.0" encoding="utf-8"?>
<!-- Generator: Adobe Illustrator 23.0.0, SVG Export Plug-In . SVG Version: 6.00 Build 0)  -->
<svg version="1.1" id="レイヤー_1" xmlns="http://www.w3.org/2000/svg" xmlns:xlink="http://www.w3.org/1999/xlink" x="0px"
	 y="0px" viewBox="0 0 96 96" style="enable-background:new 0 0 96 96;" xml:space="preserve">
<style type="text/css">
	.st0{opacity:0;}
	.st1{fill:#FFFFFF;}
</style>
<g class="st0">
	<circle class="st1" cx="48" cy="48" r="48"/>
</g>
<g>
	<path class="st1" d="M59.32,30.05c-3.28-2.08-7.16-3.3-11.32-3.3c-11.72,0-21.25,9.53-21.25,21.25c0,4.16,1.22,8.04,3.3,11.32
		L59.32,30.05z"/>
	<path class="st1" d="M75.4,26.27c-1.14-1.14-2.99-1.14-4.12,0l-45,45c-1.14,1.14-1.14,2.99,0,4.12c0.57,0.57,1.32,0.85,2.06,0.85
		s1.49-0.29,2.06-0.85l8.31-8.31c2.81,1.38,5.96,2.17,9.29,2.17c11.72,0,21.25-9.53,21.25-21.25c0-3.34-0.79-6.48-2.17-9.29
		l8.31-8.31C76.54,29.26,76.54,27.41,75.4,26.27z"/>
</g>
</svg>
