<?xml version="1.0" encoding="utf-8"?>
<!-- Generator: Adobe Illustrator 23.0.0, SVG Export Plug-In . SVG Version: 6.00 Build 0)  -->
<svg version="1.1" id="レイヤー_1" xmlns="http://www.w3.org/2000/svg" xmlns:xlink="http://www.w3.org/1999/xlink" x="0px"
	 y="0px" viewBox="0 0 280 86" style="enable-background:new 0 0 280 86;" xml:space="preserve">
<style type="text/css">
	.st0{fill:#292929;}
	.st1{fill:none;stroke:#FFFFFF;stroke-width:4;stroke-linecap:round;stroke-miterlimit:10;}
	.st2{fill:none;stroke:#FFFFFF;stroke-width:4;stroke-linecap:round;stroke-linejoin:round;stroke-miterlimit:10;}
	.st3{fill:#FFFFFF;}
</style>
<path id="長方形_57" class="st0" d="M43,0h194c23.7,0,43,19.3,43,43l0,0c0,23.7-19.3,43-43,43H43C19.3,86,0,66.7,0,43l0,0
	C0,19.3,19.3,0,43,0z"/>
<g id="back_icon01" transform="translate(1817 1854)">
	<path id="パス_119" class="st1" d="M-1719.8-1818h1.9c3.9,0,7,3.1,7,7s-3.1,7-7,7h-21.1"/>
	<line id="線_1" class="st2" x1="-1733.4" y1="-1809.6" x2="-1739" y2="-1804"/>
</g>
<g>
	<path class="st3" d="M150.9,47.5c1.7,3.6,5,5.5,10.4,6.2c-0.6,0.6-1.4,1.7-1.7,2.5c-5.3-0.9-8.6-3.1-10.6-6.9
		c-1.3,3.3-4.1,5.6-9.8,6.9c-0.2-0.7-1-1.8-1.5-2.3c5.6-1.2,7.9-3.3,9-6.5H139c-0.5,3-1.5,5.9-3.4,8.3c-0.5-0.5-1.7-1.3-2.4-1.5
		c3.2-4,3.6-9.7,3.6-13.7v-5.9h21.7V42h-8.2c-0.1,1.1-0.2,2.2-0.3,3.1h10.1v2.4H150.9z M160,32.8h-25.2v-2.5H160V32.8z M147.2,45.1
		c0.1-1,0.2-2,0.3-3.1h-7.9c0,1-0.1,2.1-0.2,3.1H147.2z M139.6,36.9v2.9h16.1v-2.9H139.6z"/>
	<path class="st3" d="M186.6,33.2c-0.6,0.4-1.3,0.8-1.8,1.2c-1.5,1.1-5.1,4.2-7.2,6c1.2-0.4,2.3-0.5,3.5-0.5c5,0,8.7,3.1,8.7,7.2
		c0,4.8-3.8,8.2-10.5,8.2c-4.1,0-6.9-1.9-6.9-4.5c0-2.2,2-4.2,4.9-4.2c3.7,0,5.8,2.4,6.2,5.2c2-0.9,3.1-2.5,3.1-4.6
		c0-2.8-2.8-4.8-6.5-4.8c-4.7,0-7.6,2.2-11.1,5.9L167,46c2.3-1.9,6-5,7.8-6.4c1.6-1.4,5.1-4.2,6.6-5.5c-1.6,0.1-6.6,0.3-8.2,0.4
		c-0.8,0.1-1.5,0.1-2.2,0.2l-0.1-3.1c0.8,0.1,1.7,0.1,2.4,0.1c1.6,0,8.3-0.2,9.9-0.3c1-0.1,1.6-0.2,1.9-0.3L186.6,33.2z M180.8,52.4
		c-0.2-2.2-1.5-3.6-3.5-3.6c-1.2,0-2.1,0.7-2.1,1.6c0,1.3,1.5,2.1,3.5,2.1C179.5,52.5,180.1,52.5,180.8,52.4z"/>
</g>
</svg>
