<?xml version="1.0" encoding="utf-8"?>
<!-- Generator: Adobe Illustrator 23.0.0, SVG Export Plug-In . SVG Version: 6.00 Build 0)  -->
<svg version="1.1" id="レイヤー_1" xmlns="http://www.w3.org/2000/svg" xmlns:xlink="http://www.w3.org/1999/xlink" x="0px"
	 y="0px" viewBox="0 0 194 194" style="enable-background:new 0 0 194 194;" xml:space="preserve">
<style type="text/css">
	.st0{fill:none;stroke:#FFFFFF;stroke-width:2;stroke-miterlimit:10;}
	.st1{enable-background:new    ;}
	.st2{fill:#FFFFFF;}
	.st3{fill:none;stroke:#FFFFFF;stroke-width:7;stroke-linecap:round;stroke-miterlimit:10;}
	.st4{fill:none;stroke:#FFFFFF;stroke-width:7;stroke-linecap:round;stroke-linejoin:round;stroke-miterlimit:10;}
</style>
<g id="グループ化_59" transform="translate(-1823 -983)">
	<circle id="楕円形_26" class="st0" cx="1920" cy="1080" r="97"/>
	<g class="st1">
		<path class="st2" d="M1882.7,1117.4l-3.8-6.8h-2.7v6.8h-2.7v-16.9h5.5c3.5,0,6.1,1.2,6.1,4.9c0,2.6-1.4,4.2-3.5,4.9l4.1,7.2
			L1882.7,1117.4L1882.7,1117.4z M1876.1,1108.4h2.6c2.5,0,3.8-1,3.8-3.1s-1.3-2.8-3.8-2.8h-2.6V1108.4z"/>
		<path class="st2" d="M1889.7,1100.5h10v2.2h-7.3v4.7h6.2v2.3h-6.2v5.5h7.6v2.3h-10.3L1889.7,1100.5L1889.7,1100.5z"/>
		<path class="st2" d="M1908.1,1102.7h-5v-2.2h12.6v2.2h-5v14.7h-2.7L1908.1,1102.7L1908.1,1102.7z"/>
		<path class="st2" d="M1919.7,1110.1v-9.7h2.7v9.8c0,3.8,1.5,5.1,3.6,5.1s3.7-1.2,3.7-5.1v-9.8h2.6v9.7c0,5.5-2.5,7.6-6.3,7.6
			S1919.7,1115.6,1919.7,1110.1z"/>
		<path class="st2" d="M1947.1,1117.4l-3.8-6.8h-2.7v6.8h-2.7v-16.9h5.5c3.5,0,6.1,1.2,6.1,4.9c0,2.6-1.4,4.2-3.5,4.9l4.1,7.2
			L1947.1,1117.4L1947.1,1117.4z M1940.5,1108.4h2.6c2.5,0,3.8-1,3.8-3.1s-1.3-2.8-3.8-2.8h-2.6V1108.4z"/>
		<path class="st2" d="M1954,1100.5h2.7l5.6,9.9l1.8,3.6h0.1c-0.1-1.7-0.3-3.8-0.3-5.6v-7.9h2.5v16.9h-2.7l-5.6-10l-1.8-3.5h-0.1
			c0.1,1.7,0.3,3.7,0.3,5.5v8h-2.5V1100.5z"/>
	</g>
	<g id="back_icon01" transform="translate(1894.968 1041.873)">
		<path id="パス_119" class="st3" d="M34.3,0h3.4C44.6,0.1,50.1,5.7,50,12.6C50,19.4,44.5,25,37.6,25H0"/>
		<line id="線_1" class="st4" x1="10" y1="15" x2="0" y2="25"/>
	</g>
</g>
</svg>
