<svg xmlns="http://www.w3.org/2000/svg" viewBox="0 0 194 194">
  <defs>
    <style>
      .cls-1 {
        fill: #6e0000;
      }

      .cls-2, .cls-3 {
        fill: #fff;
      }

      .cls-2 {
        font-size: 23px;
        font-family: NotoSansJP-Medium, Noto Sans JP Medium;
        font-weight: 500;
        letter-spacing: 0.05em;
      }
    </style>
  </defs>
  <g id="グループ化_68" data-name="グループ化 68" transform="translate(-1940 -983)">
    <g id="グループ化_45" data-name="グループ化 45" transform="translate(117)">
      <circle id="楕円形_26" data-name="楕円形 26" class="cls-1" cx="97" cy="97" r="97" transform="translate(1823 983)"/>
      <text id="QUIT" class="cls-2" transform="translate(1919.964 1121.392)"><tspan x="-29.394" y="0">QUIT</tspan></text>
    </g>
    <g id="グループ化_66" data-name="グループ化 66" transform="translate(1940 983)">
      <path id="パス_203" data-name="パス 203" class="cls-3" d="M99.18,62.44H70.39a1,1,0,0,0-.87.52L59.12,82.27a.983.983,0,0,0,.86,1.45H77.9Z"/>
      <path id="パス_204" data-name="パス 204" class="cls-3" d="M132.88,82.27,122.47,62.96a.978.978,0,0,0-.87-.52h-6.02l7.8-7.8a2.913,2.913,0,0,0-4.12-4.12l-45,45a2.91,2.91,0,0,0,2.06,4.97,2.95,2.95,0,0,0,2.06-.85L94.31,83.71H132a.958.958,0,0,0,.84-.48A.9.9,0,0,0,132.88,82.27Z"/>
    </g>
  </g>
</svg>
