<?xml version="1.0" encoding="utf-8"?>
<!-- Generator: Adobe Illustrator 23.0.0, SVG Export Plug-In . SVG Version: 6.00 Build 0)  -->
<svg version="1.1" id="レイヤー_1" xmlns="http://www.w3.org/2000/svg" xmlns:xlink="http://www.w3.org/1999/xlink" x="0px"
	 y="0px" viewBox="0 0 400 86" style="enable-background:new 0 0 400 86;" xml:space="preserve">
<style type="text/css">
	.st0{fill:#292929;}
	.st1{enable-background:new    ;}
	.st2{fill:#FFFFFF;}
	.st3{fill:none;stroke:#FFFFFF;stroke-width:4;stroke-linecap:round;stroke-miterlimit:10;}
	.st4{fill:none;stroke:#FFFFFF;stroke-width:4;stroke-linecap:round;stroke-linejoin:round;stroke-miterlimit:10;}
</style>
<g id="シンボル_5_1" transform="translate(-1720 -1823)">
	<path id="長方形_57" class="st0" d="M1763,1823h314c23.7,0,43,19.3,43,43l0,0c0,23.7-19.3,43-43,43h-314c-23.7,0-43-19.3-43-43
		l0,0C1720,1842.3,1739.3,1823,1763,1823z"/>
	<g class="st1">
		<path class="st2" d="M1896.4,1877l-5-8.9h-3.6v8.9h-3.5v-22.1h7.2c4.6,0,8,1.6,8,6.4c0,3.4-1.8,5.5-4.6,6.3l5.4,9.4H1896.4z
			 M1887.8,1865.3h3.3c3.2,0,4.9-1.3,4.9-4s-1.7-3.6-4.9-3.6h-3.3V1865.3z"/>
		<path class="st2" d="M1905.5,1854.9h13v2.9h-9.6v6.1h8.1v2.9h-8.1v7.1h9.9v2.9h-13.4V1854.9z"/>
		<path class="st2" d="M1929.5,1857.8h-6.5v-2.9h16.5v2.9h-6.5v19.2h-3.5V1857.8z"/>
		<path class="st2" d="M1944.7,1867.5v-12.6h3.5v12.8c0,5,2,6.6,4.7,6.6c2.8,0,4.8-1.6,4.8-6.6v-12.8h3.4v12.6
			c0,7.2-3.3,9.9-8.2,9.9C1948,1877.4,1944.7,1874.7,1944.7,1867.5z"/>
		<path class="st2" d="M1980.4,1877l-5-8.9h-3.6v8.9h-3.5v-22.1h7.2c4.6,0,8,1.6,8,6.4c0,3.4-1.8,5.5-4.6,6.3l5.4,9.4H1980.4z
			 M1971.8,1865.3h3.3c3.2,0,5-1.3,5-4s-1.7-3.6-5-3.6h-3.3V1865.3z"/>
		<path class="st2" d="M1989.4,1854.9h3.6l7.3,13l2.3,4.7h0.1c-0.2-2.3-0.4-5-0.4-7.3v-10.3h3.3v22.1h-3.6l-7.3-13l-2.3-4.6h-0.1
			c0.2,2.3,0.5,4.8,0.5,7.2v10.4h-3.3V1854.9z"/>
	</g>
	<g id="back_icon01" transform="translate(1817 1854)">
		<path id="パス_119" class="st3" d="M29.2,5h1.9c3.9,0,7,3.1,7,7s-3.1,7-7,7H10"/>
		<line id="線_1" class="st4" x1="15.6" y1="13.4" x2="10" y2="19"/>
	</g>
</g>
</svg>
