<?xml version="1.0" encoding="utf-8"?>
<!-- Generator: Adobe Illustrator 23.0.0, SVG Export Plug-In . SVG Version: 6.00 Build 0)  -->
<svg version="1.1" id="レイヤー_1" xmlns="http://www.w3.org/2000/svg" xmlns:xlink="http://www.w3.org/1999/xlink" x="0px"
	 y="0px" viewBox="0 0 400 86" style="enable-background:new 0 0 400 86;" xml:space="preserve">
<style type="text/css">
	.st0{fill:#6E0000;}
	.st1{enable-background:new    ;}
	.st2{fill:#FFFFFF;}
	.st3{fill:#FFFFFF;stroke:#FFFFFF;stroke-width:0.4667;stroke-linecap:round;stroke-linejoin:round;stroke-miterlimit:10;}
</style>
<g id="シンボル_5_1" transform="translate(-1720 -1823)">
	<path id="長方形_57" class="st0" d="M1763,1823h314c23.7,0,43,19.3,43,43l0,0c0,23.7-19.3,43-43,43h-314c-23.7,0-43-19.3-43-43
		l0,0C1720,1842.3,1739.3,1823,1763,1823z"/>
	<g class="st1">
		<path class="st2" d="M1895.4,1854.9h3.5v19.1h9.3v2.9h-12.8V1854.9z"/>
		<path class="st2" d="M1913.6,1854.9h13v2.9h-9.6v6.1h8.1v2.9h-8.1v7.1h9.9v2.9h-13.4V1854.9z"/>
		<path class="st2" d="M1943.3,1870.7h-7.7l-1.9,6.3h-3.5l7.3-22.1h4l7.3,22.1h-3.7L1943.3,1870.7z M1942.4,1868l-0.9-3
			c-0.8-2.4-1.4-4.9-2.1-7.3h-0.1c-0.6,2.5-1.3,5-2,7.3l-0.9,3H1942.4z"/>
		<path class="st2" d="M1949.7,1854.9h3.7l3.3,11.4c0.8,2.5,1.2,4.7,2,7.2h0.2c0.8-2.5,1.3-4.7,2-7.2l3.3-11.4h3.5l-6.9,22.1h-4.1
			L1949.7,1854.9z"/>
		<path class="st2" d="M1972,1854.9h13v2.9h-9.6v6.1h8.1v2.9h-8.1v7.1h9.9v2.9H1972V1854.9z"/>
	</g>
	<g>
		<polygon class="st3" points="1861.7,1864.6 1858.8,1857.2 1845.3,1857.2 1842.4,1864.6 1831,1864.6 1852,1877.6 1873,1864.6 		"/>
	</g>
</g>
</svg>
