<?xml version="1.0" encoding="utf-8"?>
<!-- Generator: Adobe Illustrator 22.1.0, SVG Export Plug-In . SVG Version: 6.00 Build 0)  -->
<svg version="1.1" id="レイヤー_1" xmlns="http://www.w3.org/2000/svg" xmlns:xlink="http://www.w3.org/1999/xlink" x="0px"
	 y="0px" viewBox="0 0 120 800" style="enable-background:new 0 0 120 800;" xml:space="preserve">
<g transform="translate(200,200)">
	<g>
		<path d="M1659.5,1755.4v63.7h-209v-63.7h70.7v-376.9h67.9v376.9H1659.5z"/>
		<path d="M1427.4,1717.4c0,34.7-9.4,62-28.3,81.7s-45,29.6-78.3,29.6c-31.5,0-56.4-10.1-74.8-30.3c-18.4-20.2-27.6-47.8-27.6-82.7
			v-225.8c0-38.6,9.1-68.4,27.3-89.3c18.2-20.9,44-31.4,77.5-31.4c33.9,0,59.8,10.4,77.5,31.2c17.8,20.8,26.7,51.2,26.7,91.3
			L1427.4,1717.4L1427.4,1717.4z M1288.1,1475.7v245.9c0,15.2,2.9,26.7,8.8,34.3c5.9,7.6,14.6,11.4,26.2,11.4s20.3-3.8,26.2-11.4
			c5.9-7.6,8.8-19,8.8-34.3v-245.9c0-15.2-2.9-26.7-8.8-34.4c-5.9-7.7-14.6-11.6-26.2-11.6s-20.3,3.9-26.2,11.6
			C1291.1,1449,1288.1,1460.5,1288.1,1475.7z"/>
		<path d="M1161.7,1819.1h-69.5v-341.2c0-12.8-3.3-23-9.9-30.6s-15.3-11.4-26.1-11.4c-10.8,0-19.2,3.8-25.3,11.3
			c-6.1,7.5-9.1,17.8-9.1,30.8v341.2h-69.2v-329.4c0-38.8,9-68.6,27-89.4s43.7-31.2,77.2-31.2c33.9,0,59.9,10.5,77.8,31.4
			c18,20.9,27,51.3,27,91.1L1161.7,1819.1L1161.7,1819.1z"/>
		<path d="M895.1,1491.6v225.8c0,34.7-9.4,62-28.3,81.7c-18.9,19.7-45,29.6-78.3,29.6c-31.5,0-56.4-10.1-74.8-30.3
			c-18.4-20.2-27.6-47.8-27.6-82.7v-42.4h69.8v48.4c0,15.2,2.9,26.7,8.8,34.3c5.9,7.6,14.6,11.4,26.2,11.4s20.3-3.8,26.2-11.4
			s8.8-19,8.8-34.3v-245.9c0-15.2-2.9-26.7-8.8-34.4c-5.9-7.7-14.6-11.6-26.2-11.6s-20.3,3.9-26.2,11.6s-8.8,19.2-8.8,34.4v60h-69.8
			v-46c0-38.6,9.1-68.4,27.3-89.3s44-31.4,77.5-31.4c34.3,0,60.3,10.4,77.8,31.1C886.3,1420.9,895.1,1451.4,895.1,1491.6z"/>
		<path d="M627.9,1819.1h-67.3v-179.8h-67.9v179.8h-67.9v-440.6h67.9v197.1h67.9v-197.1h67.3V1819.1z"/>
	</g>
	<g>
		<path d="M1416.7,816.9l-72.5,440.6h-88.7l-72.2-440.6h69.8l13.7,95.4h68.6l14.6-95.4H1416.7z M1326.8,974.8H1275l23.2,184h4.3
			L1326.8,974.8z"/>
		<path d="M1144.3,816.9v440.6h-60.9l-86.2-263.2c-1.6-5.1-3.6-11.8-5.9-20.1c-2.3-8.3-4.7-17.3-7.2-26.8
			c2.2,12.8,4.1,24.6,5.5,35.5s2.1,18.8,2.1,23.9v250.8H928V816.9h63.7l82.9,243.4c0.4,1,0.9,2.5,1.5,4.6
			c5.7,16.7,10,31.1,12.8,43.3c-2.4-15.4-4.3-28.3-5.6-38.5c-1.3-10.3-2-17.7-2-22.4V816.9H1144.3z"/>
		<path d="M858.5,816.9v440.6h-96.6c-37.4,0-65.1-9.9-83-29.6c-18-19.7-27-50.2-27-91.4V939.7c0-42.9,8.5-74,25.6-93.5
			s44.2-29.2,81.4-29.2L858.5,816.9L858.5,816.9z M791.2,881.8h-34.4c-12,0-20.9,3.8-26.7,11.3s-8.7,19.2-8.7,35v212.1
			c0,18.1,4.4,31.3,13.1,39.8c8.7,8.4,22.4,12.6,41.1,12.6h15.5V881.8H791.2z"/>
	</g>
	<g>
		<path d="M1472.8,632.2v63.7h-209v-63.7h70.7V255.3h67.9v376.9H1472.8z"/>
		<path d="M1280.5,255.3L1208,695.9h-88.7l-72.2-440.6h69.8l13.7,95.4h68.6l14.6-95.4L1280.5,255.3L1280.5,255.3z M1190.6,413.2
			h-51.8l23.2,184h4.3L1190.6,413.2z"/>
		<path d="M1008.1,255.3v440.6h-67.3V319H835.4v-63.7H1008.1z"/>
		<path d="M797.3,255.3v440.6h-67.9V510.1c-2,7.3-3.8,13.3-5.3,17.8s-2.9,8.2-4.1,10.8l-67.3,157.2h-67.3L661,545.4l-84.4-290.1
			h70.7l57.3,221.5l25-50V255.3H797.3z"/>
	</g>
</g>
</svg>
