<?xml version="1.0" encoding="utf-8"?>
<!-- Generator: Adobe Illustrator 23.0.0, SVG Export Plug-In . SVG Version: 6.00 Build 0)  -->
<svg version="1.1" id="レイヤー_1" xmlns="http://www.w3.org/2000/svg" xmlns:xlink="http://www.w3.org/1999/xlink" x="0px"
	 y="0px" viewBox="0 0 96 96" style="enable-background:new 0 0 96 96;" xml:space="preserve">
<style type="text/css">
	.st0{opacity:0;}
	.st1{fill:#FFFFFF;}
	.st2{fill:#FCFDFF;}
</style>
<g class="st0">
	<circle class="st1" cx="48" cy="48" r="48"/>
</g>
<g>
	<path class="st2" d="M62,22.5c-6.3,0-11.5,5.2-11.5,11.5c0,6.3,5.2,11.5,11.5,11.5c6.3,0,11.5-5.2,11.5-11.5
		C73.5,27.7,68.3,22.5,62,22.5z"/>
	<path class="st2" d="M47.9,41L23.1,71.3c-0.4,0.5-0.3,1.1,0.1,1.5c0.2,0.2,0.5,0.3,0.8,0.3c0.3,0,0.5-0.1,0.7-0.3L55,48.1
		C51.9,46.6,49.4,44.1,47.9,41z"/>
</g>
</svg>
