<?xml version="1.0" encoding="utf-8"?>
<!-- Generator: Adobe Illustrator 23.0.0, SVG Export Plug-In . SVG Version: 6.00 Build 0)  -->
<svg version="1.1" id="レイヤー_1" xmlns="http://www.w3.org/2000/svg" xmlns:xlink="http://www.w3.org/1999/xlink" x="0px"
	 y="0px" viewBox="0 0 194 194" style="enable-background:new 0 0 194 194;" xml:space="preserve">
<style type="text/css">
	.st0{fill:#6E0000;}
	.st1{fill:#FFFFFF;}
</style>
<g id="グループ化_68" transform="translate(-1940 -983)">
	<g id="グループ化_45" transform="translate(117)">
		<circle id="楕円形_26" class="st0" cx="1920" cy="1080" r="97"/>
	</g>
	<g id="グループ化_66" transform="translate(1940 983)">
		<path id="パス_203" class="st1" d="M99.2,62.4H70.4c-0.4,0-0.7,0.2-0.9,0.5L59.1,82.3c-0.3,0.5-0.1,1.1,0.4,1.3
			c0.1,0.1,0.3,0.1,0.5,0.1h17.9L99.2,62.4z"/>
		<path id="パス_204" class="st1" d="M132.9,82.3L122.5,63c-0.2-0.3-0.5-0.5-0.9-0.5h-6l7.8-7.8c1.1-1.1,1.1-3,0-4.1s-3-1.1-4.1,0
			l-45,45c-1.1,1.1-1.1,3,0,4.1c0.5,0.5,1.3,0.9,2.1,0.9c0.8,0,1.5-0.3,2.1-0.8l15.9-15.9H132c0.3,0,0.7-0.2,0.8-0.5
			C133,82.9,133.1,82.6,132.9,82.3z"/>
	</g>
</g>
<g>
	<path class="st1" d="M54.1,128.6c-0.3,2.2-0.8,4.4-1.5,5.9c-0.3-0.3-1.2-0.6-1.6-0.8c0.7-1.4,1.1-3.4,1.4-5.4L54.1,128.6z
		 M71,118.1c-0.9,2.2-2.2,4.1-3.7,5.7c1.6,1.3,3.4,2.4,5.4,3.1c-0.5,0.4-1.1,1.2-1.4,1.7c-2-0.8-3.8-2-5.4-3.5
		c-1.6,1.4-3.4,2.5-5.3,3.3c-0.2-0.3-0.5-0.7-0.8-1.1l-1.3,0.6c-0.1-0.3-0.2-0.8-0.3-1.2l-1.5,0.1v9.5h-1.9v-9.3
		c-1.3,0.1-2.4,0.1-3.5,0.2l-0.2-1.9l1.6,0c0.4-0.6,0.9-1.2,1.3-1.8c-0.7-1-1.8-2.3-2.9-3.2l1-1.4c0.2,0.2,0.4,0.3,0.6,0.5
		c0.7-1.3,1.5-2.9,1.9-4.2l1.9,0.7c-0.8,1.5-1.8,3.3-2.6,4.6c0.4,0.4,0.8,0.9,1.1,1.3c0.8-1.4,1.6-2.8,2.2-3.9l1.8,0.8
		c-1.3,2.1-2.9,4.6-4.4,6.5c0.9,0,1.9-0.1,2.9-0.1c-0.3-0.6-0.6-1.3-0.9-1.9l1.4-0.6c0.8,1.2,1.5,2.8,1.9,4c1.7-0.7,3.2-1.6,4.6-2.8
		c-0.8-0.9-1.5-1.8-2.1-2.9c-0.7,0.8-1.4,1.5-2.3,2.2c-0.3-0.5-1-1.1-1.4-1.4c2.5-1.9,4.1-4.5,4.9-6.6l2.1,0.3
		c-0.3,0.6-0.6,1.3-1,1.9h4.6l0.4-0.1L71,118.1z M58.6,128.1c0.6,1.3,1.2,3,1.4,4.2l-1.6,0.6c-0.2-1.1-0.8-2.9-1.4-4.2L58.6,128.1z
		 M62,131.2c3,0.8,6.6,2.3,8.7,3.5l-1.3,1.7c-2-1.2-5.7-2.8-8.7-3.6L62,131.2z M64.4,127.2c1.6,0.6,3.6,1.7,4.6,2.5l-1.2,1.5
		c-1.1-0.9-3.1-2-4.7-2.7L64.4,127.2z M63.5,119.3c0.6,1.1,1.4,2.2,2.3,3.1c0.9-1,1.8-2,2.4-3.2L63.5,119.3L63.5,119.3z"/>
	<path class="st1" d="M95,117.9c-2,2.4-5.1,5.2-7.9,6.8v8.9c0,1.3-0.3,1.9-1.3,2.3c-1,0.3-2.6,0.3-4.8,0.3c-0.1-0.6-0.5-1.6-0.9-2.2
		c1.8,0.1,3.6,0.1,4.1,0c0.5,0,0.6-0.1,0.6-0.5v-10.7h1.4c1.6-1.1,3.4-2.6,4.7-3.9H76.8v-2.1h16l0.5-0.1L95,117.9z"/>
	<path class="st1" d="M119.9,121.1c-1.4-0.1-3.5-0.1-6.8-0.1c0,1.2,0,2.6,0,3.6c0.5,0.8,0.8,1.9,0.8,3c0,3-1.6,6.6-7,8.2l-2-1.9
		c2.7-0.6,4.8-1.6,5.9-3.3c-0.5,0.2-1,0.3-1.6,0.3c-1.8,0-3.8-1.4-3.8-4c0-2.4,2-4.1,4.3-4.1c0.5,0,0.9,0,1.3,0.2l0-1.9
		c-3.4,0-7.2,0.2-10,0.4l-0.1-2.2c2.6,0,6.8-0.2,10-0.2c0-0.5,0-0.9,0-1.2c0-0.6-0.1-1.3-0.2-1.7h2.6c0,0.3-0.1,1.3-0.1,1.7
		c0,0.3,0,0.7,0,1.1h6.8L119.9,121.1z M109.6,128.8c1.2,0,2-0.9,1.7-3.1c-0.4-0.7-1-1.1-1.8-1.1c-1,0-2,0.8-2,2.1
		C107.5,128.1,108.5,128.8,109.6,128.8z"/>
	<path class="st1" d="M140.2,118.5c-0.5,0.3-1,0.6-1.4,0.9c-1.2,0.8-3.9,3.2-5.5,4.6c0.9-0.3,1.8-0.4,2.7-0.4c3.8,0,6.6,2.3,6.6,5.5
		c0,3.7-2.9,6.3-8,6.3c-3.2,0-5.3-1.4-5.3-3.5c0-1.7,1.5-3.2,3.8-3.2c2.8,0,4.5,1.8,4.8,4c1.5-0.7,2.4-1.9,2.4-3.6
		c0-2.1-2.2-3.7-4.9-3.7c-3.6,0-5.8,1.7-8.5,4.6l-1.7-1.7c1.8-1.4,4.6-3.8,6-4.9c1.3-1.1,3.9-3.2,5-4.2c-1.2,0-5.1,0.2-6.3,0.3
		c-0.6,0-1.2,0.1-1.7,0.2l-0.1-2.4c0.6,0.1,1.3,0.1,1.8,0.1c1.2,0,6.3-0.1,7.6-0.3c0.8-0.1,1.2-0.1,1.4-0.2L140.2,118.5z
		 M135.7,133.3c-0.2-1.7-1.2-2.8-2.7-2.8c-0.9,0-1.6,0.6-1.6,1.3c0,1,1.2,1.6,2.7,1.6C134.7,133.4,135.2,133.3,135.7,133.3z"/>
</g>
</svg>
