<?xml version="1.0" encoding="utf-8"?>
<!-- Generator: Adobe Illustrator 23.0.0, SVG Export Plug-In . SVG Version: 6.00 Build 0)  -->
<svg version="1.1" id="レイヤー_1" xmlns="http://www.w3.org/2000/svg" xmlns:xlink="http://www.w3.org/1999/xlink" x="0px"
	 y="0px" viewBox="0 0 280 86" style="enable-background:new 0 0 280 86;" xml:space="preserve">
<style type="text/css">
	.st0{fill:#6E0000;}
	.st1{enable-background:new    ;}
	.st2{fill:#FFFFFF;}
</style>
<path id="長方形_57" class="st0" d="M43,0h194c23.7,0,43,19.3,43,43l0,0c0,23.7-19.3,43-43,43H43C19.3,86,0,66.7,0,43l0,0
	C0,19.3,19.3,0,43,0z"/>
<g class="st1">
	<path class="st2" d="M111.4,46.3c-0.4,2.8-1.1,5.7-2,7.6c-0.5-0.3-1.6-0.8-2.1-1c0.9-1.8,1.5-4.4,1.8-7L111.4,46.3z M133.6,32.6
		c-1.1,2.8-2.8,5.3-4.9,7.4c2.1,1.7,4.5,3.2,7,4c-0.6,0.5-1.4,1.5-1.8,2.2c-2.5-1-4.9-2.6-7.1-4.6c-2.1,1.8-4.5,3.2-6.9,4.3
		c-0.2-0.4-0.6-0.9-1-1.4l-1.7,0.8c-0.1-0.5-0.2-1-0.4-1.5l-2,0.1v12.3h-2.5V44.1c-1.6,0.1-3.2,0.2-4.5,0.3l-0.2-2.5l2.1-0.1
		c0.5-0.7,1.1-1.5,1.7-2.4c-0.9-1.3-2.4-3-3.7-4.2l1.3-1.8c0.3,0.2,0.5,0.4,0.8,0.7c0.9-1.6,1.9-3.8,2.5-5.4l2.5,1
		c-1,2-2.3,4.3-3.4,6c0.5,0.6,1.1,1.1,1.4,1.7c1.1-1.8,2.1-3.6,2.9-5.1l2.3,1c-1.7,2.7-3.8,6-5.8,8.5c1.2,0,2.5-0.1,3.8-0.2
		c-0.4-0.8-0.8-1.7-1.2-2.4l1.9-0.8c1,1.6,1.9,3.6,2.4,5.2c2.2-0.9,4.2-2.1,6-3.6c-1-1.2-1.9-2.4-2.8-3.7c-0.9,1-1.9,2-2.9,2.9
		c-0.4-0.6-1.3-1.4-1.9-1.8c3.2-2.5,5.3-5.9,6.4-8.6l2.8,0.5c-0.4,0.8-0.8,1.7-1.3,2.5h6.1l0.5-0.1L133.6,32.6z M117.4,45.7
		c0.8,1.7,1.6,4,1.9,5.4l-2.1,0.7c-0.3-1.5-1-3.8-1.8-5.5L117.4,45.7z M121.7,49.8c3.9,1,8.7,3,11.4,4.5l-1.6,2.2
		c-2.6-1.6-7.4-3.6-11.4-4.7L121.7,49.8z M125,44.5c2.1,0.8,4.6,2.2,6.1,3.3l-1.6,1.9c-1.4-1.1-4-2.6-6.1-3.5L125,44.5z M123.8,34.2
		c0.8,1.4,1.9,2.8,3.1,4.1c1.2-1.3,2.3-2.6,3.1-4.1L123.8,34.2L123.8,34.2z"/>
	<path class="st2" d="M164.3,32.4c-2.6,3.1-6.6,6.7-10.3,8.9v11.6c0,1.7-0.5,2.5-1.7,3c-1.3,0.4-3.3,0.5-6.3,0.5
		c-0.2-0.8-0.7-2-1.1-2.9c2.3,0.1,4.7,0.1,5.4,0.1c0.6,0,0.8-0.2,0.8-0.7v-14h1.8c2.1-1.4,4.4-3.4,6.1-5.1h-18.4v-2.8h20.8l0.6-0.1
		L164.3,32.4z"/>
	<path class="st2" d="M196.2,36.5c-1.8-0.1-4.6-0.1-8.9-0.1c0,1.6,0,3.3,0,4.6c0.7,1.1,1,2.4,1,4c0,4-2.1,8.6-9.1,10.6l-2.5-2.5
		c3.5-0.8,6.2-2.1,7.6-4.3c-0.6,0.3-1.3,0.4-2.1,0.4c-2.4,0-5-1.8-5-5.2c0-3.1,2.5-5.3,5.5-5.3c0.6,0,1.1,0.1,1.6,0.2l0-2.5
		c-4.5,0.1-9.4,0.2-13,0.5l-0.1-2.9c3.4,0,8.9-0.2,13.1-0.3c0-0.6,0-1.2-0.1-1.5c-0.1-0.8-0.1-1.7-0.2-2.2h3.4
		c-0.1,0.4-0.2,1.7-0.2,2.2c0,0.4,0,0.9,0,1.5h8.9L196.2,36.5z M182.9,46.6c1.5,0,2.7-1.2,2.3-4c-0.5-1-1.3-1.4-2.3-1.4
		c-1.3,0-2.7,1-2.7,2.8C180.2,45.6,181.4,46.6,182.9,46.6z"/>
	<path class="st2" d="M222.2,33.2c-0.6,0.4-1.3,0.8-1.8,1.2c-1.5,1.1-5.1,4.2-7.2,6c1.2-0.4,2.3-0.5,3.5-0.5c5,0,8.7,3.1,8.7,7.2
		c0,4.8-3.8,8.2-10.5,8.2c-4.1,0-6.9-1.9-6.9-4.5c0-2.2,2-4.2,4.9-4.2c3.7,0,5.8,2.4,6.2,5.2c2-0.9,3.1-2.5,3.1-4.7
		c0-2.8-2.8-4.8-6.5-4.8c-4.7,0-7.6,2.2-11.1,5.9l-2.2-2.2c2.3-1.9,6-5,7.8-6.5c1.6-1.4,5.1-4.2,6.6-5.5c-1.6,0.1-6.6,0.3-8.2,0.4
		c-0.8,0.1-1.5,0.1-2.2,0.2l-0.1-3.1c0.8,0.1,1.7,0.1,2.4,0.1c1.6,0,8.3-0.2,9.9-0.3c1-0.1,1.6-0.2,1.9-0.3L222.2,33.2z M216.4,52.4
		c-0.2-2.2-1.5-3.6-3.5-3.6c-1.2,0-2.1,0.7-2.1,1.6c0,1.3,1.5,2.1,3.5,2.1C215.1,52.6,215.8,52.5,216.4,52.4z"/>
</g>
<g id="グループ化_66" transform="translate(1940 983)">
	<path id="パス_203" class="st2" d="M-1872.1-947.5h-17.3c-0.2,0-0.4,0.1-0.5,0.3l-6.2,11.6c-0.2,0.3-0.1,0.7,0.2,0.8
		c0.1,0.1,0.2,0.1,0.3,0.1h10.7L-1872.1-947.5z"/>
	<path id="パス_204" class="st2" d="M-1851.9-935.5l-6.2-11.6c-0.1-0.2-0.3-0.3-0.5-0.3h-3.6l4.7-4.7c0.7-0.7,0.7-1.8,0-2.5
		c-0.7-0.7-1.8-0.7-2.5,0l-27,27c-0.7,0.7-0.7,1.8,0,2.5c0.3,0.3,0.8,0.5,1.3,0.5c0.5,0,0.9-0.2,1.3-0.5l9.5-9.5h22.6
		c0.2,0,0.4-0.1,0.5-0.3C-1851.8-935.2-1851.7-935.4-1851.9-935.5z"/>
</g>
</svg>
