<?xml version="1.0" encoding="utf-8"?>
<!-- Generator: Adobe Illustrator 23.0.0, SVG Export Plug-In . SVG Version: 6.00 Build 0)  -->
<svg version="1.1" id="レイヤー_1" xmlns="http://www.w3.org/2000/svg" xmlns:xlink="http://www.w3.org/1999/xlink" x="0px"
	 y="0px" viewBox="0 0 703 220" style="enable-background:new 0 0 703 220;" xml:space="preserve">
<style type="text/css">
	.st0{opacity:0;fill:#FFFFFF;}
	.st1{fill:none;stroke:#FFFFFF;stroke-width:2;stroke-linecap:round;stroke-linejoin:round;stroke-miterlimit:10;}
	.st2{fill:#FFFFFF;}
</style>
<g>
	<rect class="st0" width="703" height="220"/>
	<g>
		<polygon class="st1" points="393.45,143.33 381.06,111.5 322.94,111.5 310.55,143.33 262.01,143.33 352,199 441.99,143.33 		"/>
	</g>
	<polyline class="st1" points="296.52,123 77,123 167,63 187,63 	"/>
	<polyline class="st1" points="517,63 537,63 627,123 407.48,123 	"/>
	<g>
		<path class="st2" d="M201.28,65.55V31.28c0-0.48,0.21-0.84,0.64-1.1c0.42-0.25,0.93-0.38,1.5-0.38s1.08,0.13,1.5,0.38
			c0.42,0.25,0.64,0.62,0.64,1.1V63.2h13.92c0.44,0,0.78,0.2,1.02,0.59s0.36,0.84,0.36,1.35c0,0.51-0.12,0.96-0.36,1.35
			c-0.24,0.39-0.58,0.59-1.02,0.59h-16.27c-0.51,0-0.96-0.14-1.35-0.41C201.47,66.4,201.28,66.03,201.28,65.55z"/>
		<path class="st2" d="M229.62,65.55V31.33c0-0.48,0.2-0.85,0.59-1.12c0.39-0.27,0.84-0.41,1.35-0.41h18.16
			c0.48,0,0.84,0.19,1.1,0.56s0.38,0.82,0.38,1.33c0,0.54-0.14,1.01-0.41,1.4c-0.27,0.39-0.63,0.59-1.07,0.59h-15.81v12.95h7.96
			c0.44,0,0.8,0.18,1.07,0.54c0.27,0.36,0.41,0.79,0.41,1.3c0,0.44-0.13,0.84-0.38,1.2c-0.25,0.36-0.62,0.54-1.1,0.54h-7.96v13
			h15.81c0.44,0,0.8,0.2,1.07,0.59c0.27,0.39,0.41,0.86,0.41,1.4c0,0.51-0.13,0.95-0.38,1.33s-0.62,0.56-1.1,0.56h-18.16
			c-0.51,0-0.96-0.14-1.35-0.41C229.82,66.4,229.62,66.03,229.62,65.55z"/>
		<path class="st2" d="M258.87,65.29c0-0.07,0.03-0.2,0.1-0.41l10.44-33.91c0.3-0.99,1.17-1.49,2.6-1.49c1.43,0,2.3,0.5,2.6,1.5
			l10.47,34.03c0,0.06,0.01,0.13,0.03,0.19c0.02,0.06,0.03,0.11,0.03,0.14c0,0.45-0.28,0.85-0.84,1.2
			c-0.56,0.35-1.17,0.53-1.81,0.53c-0.82,0-1.33-0.32-1.53-0.96l-2.24-7.55h-13.5l-2.24,7.53c-0.2,0.66-0.72,0.99-1.55,0.99
			c-0.6,0-1.18-0.17-1.73-0.51S258.87,65.8,258.87,65.29z M266.27,54.99h11.38l-5.67-19.21L266.27,54.99z"/>
		<path class="st2" d="M287.74,31.58c0-0.51,0.28-0.93,0.84-1.28c0.56-0.34,1.15-0.51,1.76-0.51c0.85,0,1.38,0.32,1.58,0.97
			l8.98,30.29l8.92-30.29c0.23-0.65,0.73-0.97,1.5-0.97c0.63,0,1.23,0.19,1.78,0.56s0.83,0.79,0.83,1.26c0,0.03-0.01,0.08-0.03,0.15
			c-0.02,0.07-0.03,0.13-0.03,0.2l-10.36,33.91c-0.36,1-1.25,1.5-2.65,1.5s-2.26-0.49-2.57-1.48l-10.46-33.92
			C287.77,31.79,287.74,31.65,287.74,31.58z"/>
		<path class="st2" d="M322.84,65.55V31.33c0-0.48,0.2-0.85,0.59-1.12c0.39-0.27,0.84-0.41,1.35-0.41h18.16
			c0.48,0,0.84,0.19,1.1,0.56s0.38,0.82,0.38,1.33c0,0.54-0.14,1.01-0.41,1.4c-0.27,0.39-0.63,0.59-1.07,0.59h-15.81v12.95h7.96
			c0.44,0,0.8,0.18,1.07,0.54c0.27,0.36,0.41,0.79,0.41,1.3c0,0.44-0.13,0.84-0.38,1.2c-0.25,0.36-0.62,0.54-1.1,0.54h-7.96v13
			h15.81c0.44,0,0.8,0.2,1.07,0.59c0.27,0.39,0.41,0.86,0.41,1.4c0,0.51-0.13,0.95-0.38,1.33s-0.62,0.56-1.1,0.56h-18.16
			c-0.51,0-0.96-0.14-1.35-0.41C323.03,66.4,322.84,66.03,322.84,65.55z"/>
		<path class="st2" d="M364.45,31.69c0-0.5,0.14-0.94,0.41-1.32c0.27-0.38,0.65-0.57,1.12-0.57h20.76c0.48,0,0.85,0.19,1.12,0.57
			c0.27,0.38,0.41,0.82,0.41,1.32c0,0.53-0.14,0.99-0.41,1.39c-0.27,0.4-0.65,0.6-1.12,0.6h-8.21v31.87c0,0.48-0.21,0.85-0.64,1.13
			c-0.43,0.27-0.93,0.41-1.5,0.41s-1.08-0.14-1.5-0.41c-0.43-0.27-0.64-0.65-0.64-1.13V33.67h-8.26c-0.48,0-0.85-0.19-1.12-0.57
			C364.59,32.72,364.45,32.25,364.45,31.69z"/>
		<path class="st2" d="M390.59,65.29c0-0.07,0.03-0.2,0.1-0.41l10.44-33.91c0.3-0.99,1.17-1.49,2.6-1.49c1.43,0,2.3,0.5,2.6,1.5
			l10.47,34.03c0,0.06,0.01,0.13,0.03,0.19c0.02,0.06,0.03,0.11,0.03,0.14c0,0.45-0.28,0.85-0.84,1.2
			c-0.56,0.35-1.17,0.53-1.81,0.53c-0.82,0-1.33-0.32-1.53-0.96l-2.24-7.55h-13.5l-2.24,7.53c-0.2,0.66-0.72,0.99-1.55,0.99
			c-0.6,0-1.18-0.17-1.73-0.51S390.59,65.8,390.59,65.29z M397.99,54.99h11.38l-5.67-19.21L397.99,54.99z"/>
		<path class="st2" d="M425.73,65.6V31.33c0-0.48,0.2-0.85,0.59-1.12c0.39-0.27,0.84-0.41,1.35-0.41h8.77c3.2,0,5.72,0.63,7.57,1.89
			c1.85,1.26,2.78,3.54,2.78,6.83c0,2.11-0.38,3.88-1.15,5.33c-0.76,1.45-1.83,2.46-3.19,3.03c1.73,0.68,3.04,1.68,3.93,3.01
			c0.88,1.33,1.33,3.21,1.33,5.66v0.92c0,3.67-0.92,6.36-2.75,8.06s-4.28,2.55-7.34,2.55h-9.95c-0.58,0-1.04-0.14-1.4-0.43
			C425.91,66.36,425.73,66.01,425.73,65.6z M430.02,45.1h6.38c2.11,0,3.65-0.48,4.64-1.43c0.99-0.95,1.48-2.46,1.48-4.54
			c0-3.64-2.09-5.46-6.27-5.46h-6.22V45.1z M430.02,63.2h6.88c4.35,0,6.53-2.33,6.53-6.99v-0.87c0-2.35-0.55-4.04-1.66-5.1
			c-1.1-1.05-2.73-1.58-4.87-1.58h-6.88V63.2z"/>
		<path class="st2" d="M457.22,65.55V31.28c0-0.48,0.21-0.84,0.64-1.1c0.42-0.25,0.93-0.38,1.5-0.38s1.08,0.13,1.5,0.38
			c0.42,0.25,0.64,0.62,0.64,1.1V63.2h13.92c0.44,0,0.78,0.2,1.02,0.59s0.36,0.84,0.36,1.35c0,0.51-0.12,0.96-0.36,1.35
			c-0.24,0.39-0.58,0.59-1.02,0.59h-16.27c-0.51,0-0.96-0.14-1.35-0.41C457.42,66.4,457.22,66.03,457.22,65.55z"/>
		<path class="st2" d="M485.57,65.55V31.33c0-0.48,0.2-0.85,0.59-1.12c0.39-0.27,0.84-0.41,1.35-0.41h18.16
			c0.48,0,0.84,0.19,1.1,0.56s0.38,0.82,0.38,1.33c0,0.54-0.14,1.01-0.41,1.4c-0.27,0.39-0.63,0.59-1.07,0.59h-15.81v12.95h7.96
			c0.44,0,0.8,0.18,1.07,0.54c0.27,0.36,0.41,0.79,0.41,1.3c0,0.44-0.13,0.84-0.38,1.2c-0.25,0.36-0.62,0.54-1.1,0.54h-7.96v13
			h15.81c0.44,0,0.8,0.2,1.07,0.59c0.27,0.39,0.41,0.86,0.41,1.4c0,0.51-0.13,0.95-0.38,1.33s-0.62,0.56-1.1,0.56h-18.16
			c-0.51,0-0.96-0.14-1.35-0.41C485.77,66.4,485.57,66.03,485.57,65.55z"/>
	</g>
</g>
</svg>
