<?xml version="1.0" encoding="utf-8"?>
<!-- Generator: Adobe Illustrator 23.0.0, SVG Export Plug-In . SVG Version: 6.00 Build 0)  -->
<svg version="1.1" id="レイヤー_1" xmlns="http://www.w3.org/2000/svg" xmlns:xlink="http://www.w3.org/1999/xlink" x="0px"
	 y="0px" viewBox="0 0 194 194" style="enable-background:new 0 0 194 194;" xml:space="preserve">
<style type="text/css">
	.st0{fill:#292929;}
	.st1{fill:none;stroke:#FFFFFF;stroke-width:7;stroke-linecap:round;stroke-miterlimit:10;}
	.st2{fill:none;stroke:#FFFFFF;stroke-width:7;stroke-linecap:round;stroke-linejoin:round;stroke-miterlimit:10;}
	.st3{fill:#FFFFFF;}
</style>
<g id="グループ化_59" transform="translate(-1823 -983)">
	<circle id="楕円形_26" class="st0" cx="1920" cy="1080" r="97"/>
	<g id="back_icon01" transform="translate(1894.968 1041.873)">
		<path id="パス_119" class="st1" d="M34.3,0h3.4C44.6,0.1,50.1,5.7,50,12.6C50,19.4,44.5,25,37.6,25H0"/>
		<line id="線_1" class="st2" x1="10" y1="15" x2="0" y2="25"/>
	</g>
</g>
<g>
	<path class="st3" d="M87.6,129.5c1.3,2.7,3.8,4.2,8,4.8c-0.5,0.5-1,1.3-1.3,1.9c-4.1-0.7-6.6-2.3-8.1-5.3c-1,2.6-3.1,4.3-7.5,5.3
		c-0.2-0.5-0.8-1.4-1.1-1.7c4.3-0.9,6.1-2.5,6.9-5h-5.8c-0.4,2.3-1.2,4.6-2.6,6.4c-0.4-0.4-1.3-1-1.9-1.2c2.5-3.1,2.7-7.5,2.7-10.5
		v-4.5h16.6v5.6h-6.3c-0.1,0.9-0.1,1.7-0.2,2.4h7.7v1.8H87.6z M94.6,118.3H75.4v-1.9h19.3V118.3z M84.8,127.7
		c0.1-0.7,0.2-1.5,0.2-2.4h-6c0,0.8-0.1,1.6-0.1,2.4H84.8z M79,121.3v2.3h12.4v-2.3H79z"/>
	<path class="st3" d="M115,118.5c-0.5,0.3-1,0.6-1.4,0.9c-1.2,0.8-3.9,3.2-5.5,4.6c0.9-0.3,1.8-0.4,2.7-0.4c3.8,0,6.6,2.3,6.6,5.5
		c0,3.7-2.9,6.3-8,6.3c-3.2,0-5.3-1.4-5.3-3.5c0-1.7,1.5-3.2,3.8-3.2c2.8,0,4.5,1.8,4.8,4c1.5-0.7,2.4-1.9,2.4-3.6
		c0-2.1-2.2-3.7-4.9-3.7c-3.6,0-5.8,1.7-8.5,4.6l-1.7-1.7c1.8-1.4,4.6-3.8,6-4.9c1.3-1.1,3.9-3.2,5-4.2c-1.2,0-5.1,0.2-6.3,0.3
		c-0.6,0-1.2,0.1-1.7,0.2l-0.1-2.4c0.6,0.1,1.3,0.1,1.8,0.1c1.2,0,6.3-0.1,7.6-0.3c0.8-0.1,1.2-0.1,1.4-0.2L115,118.5z M110.6,133.3
		c-0.2-1.7-1.2-2.8-2.7-2.8c-0.9,0-1.6,0.6-1.6,1.3c0,1,1.2,1.6,2.7,1.6C109.6,133.4,110.1,133.3,110.6,133.3z"/>
</g>
</svg>
