<?xml version="1.0" encoding="utf-8"?>
<!-- Generator: Adobe Illustrator 23.0.0, SVG Export Plug-In . SVG Version: 6.00 Build 0)  -->
<svg version="1.1" id="レイヤー_1" xmlns="http://www.w3.org/2000/svg" xmlns:xlink="http://www.w3.org/1999/xlink" x="0px"
	 y="0px" viewBox="0 0 96 96" style="enable-background:new 0 0 96 96;" xml:space="preserve">
<style type="text/css">
	.st0{opacity:0;}
	.st1{fill:#FFFFFF;}
</style>
<g class="st0">
	<circle class="st1" cx="48" cy="48" r="48"/>
</g>
<g>
	<path class="st1" d="M51.18,38.2H22.39c-0.36,0-0.69,0.2-0.87,0.52L11.12,58.02c-0.16,0.3-0.16,0.67,0.02,0.97
		c0.18,0.3,0.5,0.48,0.84,0.48h17.92L51.18,38.2z"/>
	<path class="st1" d="M84.88,58.02L74.48,38.71c-0.17-0.32-0.5-0.52-0.87-0.52h-6.02l7.8-7.8c1.14-1.14,1.14-2.99,0-4.12
		s-2.99-1.14-4.12,0l-45,45c-1.14,1.14-1.14,2.99,0,4.12c0.57,0.57,1.32,0.85,2.06,0.85s1.49-0.29,2.06-0.85l15.93-15.93h37.69
		c0.35,0,0.67-0.18,0.84-0.48C85.04,58.69,85.05,58.32,84.88,58.02z"/>
</g>
</svg>
