<svg id="tap00" xmlns="http://www.w3.org/2000/svg" viewBox="0 0 209.44 209.44">
  <defs>
    <style>
      .cls-1, .cls-2 {
        fill: #fff;
      }

      .cls-1 {
        opacity: 0;
      }
    </style>
  </defs>
  <rect id="長方形_8" data-name="長方形 8" class="cls-1" width="209.44" height="209.44"/>
  <g id="グループ化_1" data-name="グループ化 1" transform="translate(48.084 9.778)">
    <path id="パス_1" data-name="パス 1" class="cls-2" d="M111.046,85.628,89.107,72.265a17.588,17.588,0,0,0-3.989-1.795,10.7,10.7,0,0,0-8.576,1.4,12.921,12.921,0,0,0-3.391,3.191V35.967a11.967,11.967,0,1,0-23.933,0V74.459a9.722,9.722,0,0,0-2.194-.8,10.224,10.224,0,0,0-7.978,1.4,12.749,12.749,0,0,0-4.388,16.753l1,1.795c.2.2.2.4.2.8v20.144a40.412,40.412,0,0,0,11.967,28.919,77.833,77.833,0,0,0,7.579,6.582,10.882,10.882,0,0,1,4.587,8.975,2.393,2.393,0,0,0,4.787,0,15.7,15.7,0,0,0-6.582-12.764,51.934,51.934,0,0,1-7.18-5.983,36.2,36.2,0,0,1-10.57-25.728V94.4a5.628,5.628,0,0,0-.8-2.992l-.6-1.795a7.95,7.95,0,0,1,2.792-10.57,6.711,6.711,0,0,1,4.388-.8,5.2,5.2,0,0,1,3.191,2.194v25.13a17.063,17.063,0,0,1-2.792,9.174,2.3,2.3,0,1,0,3.789,2.593,20.938,20.938,0,0,0,3.59-11.767V35.967a7.18,7.18,0,1,1,14.36,0V85.229a2.322,2.322,0,0,0,4.587.6c.4-1.994,2.393-7.579,5.983-9.773a6.292,6.292,0,0,1,4.986-.8,9.728,9.728,0,0,1,2.593,1.2l21.939,13.363a20.34,20.34,0,0,1,9.972,17.551v29.916a20.859,20.859,0,0,1-5.983,14.559h0a15.858,15.858,0,0,0-4.787,11.368,2.393,2.393,0,0,0,4.787,0,10.63,10.63,0,0,1,3.59-7.978,25.184,25.184,0,0,0,7.379-17.95V107.367A25.451,25.451,0,0,0,111.046,85.628Z" transform="translate(-10.134 24.085)"/>
    <path id="パス_2" data-name="パス 2" class="cls-2" d="M24.589,59.943a48.393,48.393,0,0,1,79.578-40.686,49.223,49.223,0,0,1,16.953,32.908,48.41,48.41,0,0,1-7.579,30.116,1.438,1.438,0,1,0,2.393,1.6,50.118,50.118,0,0,0,7.978-31.911A51.227,51.227,0,0,0,33.763,23.046a51.287,51.287,0,0,0,4.787,71.2,1.446,1.446,0,0,0,1.994,0,1.346,1.346,0,0,0-.2-1.994A49.49,49.49,0,0,1,24.589,59.943Z" transform="translate(-21.603 -4.903)"/>
    <path id="パス_3" data-name="パス 3" class="cls-2" d="M92.684,68.007a1.547,1.547,0,0,0,1.994-.4A35.276,35.276,0,1,0,29.86,51.453,36.252,36.252,0,0,0,38.236,71.6c.2.4.6.4,1,.4s.6-.2,1-.4a1.534,1.534,0,0,0,.2-1.994,31.432,31.432,0,0,1-7.579-18.548A32.414,32.414,0,1,1,92.485,66.013,1.311,1.311,0,0,0,92.684,68.007Z" transform="translate(-13.511 3.388)"/>
  </g>
</svg>
